<svg width="256" height="256" viewBox="0 0 256 256" fill="none" xmlns="http://www.w3.org/2000/svg">
  <rect x="28" y="28" width="200" height="200" rx="46" fill="#EF3535"/>
  <path d="M85 113L63 124V150L85 162L107 150V124L85 113Z" stroke="white" stroke-width="6" stroke-linejoin="round"/>
  <path d="M63 124L85 136L107 124" stroke="white" stroke-width="5" stroke-linejoin="round"/>
  <path d="M85 136V162" stroke="white" stroke-width="5" stroke-linecap="round"/>
  <path d="M177 75L155 86V112L177 124L199 112V86L177 75Z" stroke="white" stroke-width="6" stroke-linejoin="round"/>
  <path d="M155 86L177 98L199 86" stroke="white" stroke-width="5" stroke-linejoin="round"/>
  <path d="M177 98V124" stroke="white" stroke-width="5" stroke-linecap="round"/>
  <circle cx="128" cy="128" r="35" stroke="white" stroke-width="7"/>
  <path d="M93 128H163" stroke="white" stroke-width="6" stroke-linecap="round"/>
  <path d="M128 93C140 106 146 118 146 128C146 138 140 151 128 163" stroke="white" stroke-width="5" stroke-linecap="round"/>
  <path d="M128 93C116 106 110 118 110 128C110 138 116 151 128 163" stroke="white" stroke-width="5" stroke-linecap="round"/>
  <path d="M101 106C113 99 128 96 142 99" stroke="white" stroke-width="5" stroke-linecap="round"/>
  <path d="M101 150C113 157 128 160 142 157" stroke="white" stroke-width="5" stroke-linecap="round"/>
  <path d="M90 98C103 73 134 59 164 67" stroke="white" stroke-width="7" stroke-linecap="round"/>
  <path d="M158 55L178 72L153 79" stroke="white" stroke-width="7" stroke-linecap="round" stroke-linejoin="round"/>
  <path d="M166 158C151 182 120 194 91 185" stroke="white" stroke-width="7" stroke-linecap="round"/>
  <path d="M96 198L76 181L101 174" stroke="white" stroke-width="7" stroke-linecap="round" stroke-linejoin="round"/>
</svg>
