<svg width="900" height="560" viewBox="0 0 900 560" fill="none" xmlns="http://www.w3.org/2000/svg">
  <rect width="900" height="560" rx="34" fill="#151820"/>
  <rect x="32" y="32" width="180" height="496" rx="24" fill="#1f232c"/>
  <rect x="56" y="62" width="44" height="44" rx="14" fill="#E53935"/>
  <rect x="116" y="65" width="72" height="12" rx="6" fill="white"/>
  <rect x="116" y="87" width="54" height="9" rx="4.5" fill="#8f96a3"/>
  <rect x="56" y="142" width="132" height="38" rx="12" fill="#3a2022"/>
  <rect x="56" y="202" width="98" height="12" rx="6" fill="#8f96a3"/>
  <rect x="56" y="244" width="126" height="12" rx="6" fill="#8f96a3"/>
  <rect x="56" y="286" width="112" height="12" rx="6" fill="#8f96a3"/>
  <rect x="244" y="44" width="612" height="62" rx="22" fill="#20242d"/>
  <rect x="276" y="66" width="162" height="16" rx="8" fill="white"/>
  <rect x="716" y="60" width="104" height="28" rx="14" fill="#E53935"/>
  <rect x="244" y="132" width="286" height="152" rx="22" fill="#20242d"/>
  <rect x="560" y="132" width="296" height="152" rx="22" fill="#20242d"/>
  <rect x="276" y="164" width="168" height="15" rx="7.5" fill="white"/>
  <rect x="276" y="202" width="220" height="16" rx="8" fill="#E53935"/>
  <rect x="276" y="230" width="142" height="12" rx="6" fill="#8f96a3"/>
  <rect x="592" y="164" width="188" height="15" rx="7.5" fill="white"/>
  <rect x="592" y="202" width="230" height="16" rx="8" fill="#35d07f"/>
  <rect x="592" y="230" width="120" height="12" rx="6" fill="#8f96a3"/>
  <rect x="244" y="312" width="612" height="174" rx="22" fill="#20242d"/>
  <rect x="276" y="346" width="118" height="12" rx="6" fill="#8f96a3"/>
  <rect x="276" y="382" width="548" height="1" fill="#383d48"/>
  <rect x="276" y="410" width="108" height="12" rx="6" fill="white"/>
  <rect x="448" y="410" width="86" height="12" rx="6" fill="#8f96a3"/>
  <rect x="608" y="404" width="86" height="24" rx="12" fill="#253b2f"/>
  <rect x="724" y="404" width="76" height="24" rx="12" fill="#3a2022"/>
  <rect x="276" y="452" width="108" height="12" rx="6" fill="white"/>
  <rect x="448" y="452" width="86" height="12" rx="6" fill="#8f96a3"/>
  <rect x="608" y="446" width="86" height="24" rx="12" fill="#253b2f"/>
  <rect x="724" y="446" width="76" height="24" rx="12" fill="#253b2f"/>
</svg>
